<?xml version="1.0" encoding="utf-8"?>
<svg xmlns="http://www.w3.org/2000/svg" xmlns:xlink="http://www.w3.org/1999/xlink" width="650" height="500" viewBox="0 0 2600 2000">
<defs>
  <clipPath id="clip930">
    <rect x="0" y="0" width="2600" height="2000"/>
  </clipPath>
</defs>
<path clip-path="url(#clip930)" d="
M0 2000 L2600 2000 L2600 0 L0 0  Z
  " fill="#ffffff" fill-rule="evenodd" fill-opacity="1"/>
<defs>
  <clipPath id="clip931">
    <rect x="520" y="0" width="1821" height="1821"/>
  </clipPath>
</defs>
<path clip-path="url(#clip930)" d="
M158.598 1877.13 L2552.76 1877.13 L2552.76 132.777 L158.598 132.777  Z
  " fill="#ffffff" fill-rule="evenodd" fill-opacity="1"/>
<defs>
  <clipPath id="clip932">
    <rect x="158" y="132" width="2395" height="1745"/>
  </clipPath>
</defs>
<polyline clip-path="url(#clip932)" style="stroke:#000000; stroke-linecap:butt; stroke-linejoin:round; stroke-width:2; stroke-opacity:0.1; fill:none" points="
  477.317,1877.13 477.317,132.777 
  "/>
<polyline clip-path="url(#clip932)" style="stroke:#000000; stroke-linecap:butt; stroke-linejoin:round; stroke-width:2; stroke-opacity:0.1; fill:none" points="
  979.237,1877.13 979.237,132.777 
  "/>
<polyline clip-path="url(#clip932)" style="stroke:#000000; stroke-linecap:butt; stroke-linejoin:round; stroke-width:2; stroke-opacity:0.1; fill:none" points="
  1481.16,1877.13 1481.16,132.777 
  "/>
<polyline clip-path="url(#clip932)" style="stroke:#000000; stroke-linecap:butt; stroke-linejoin:round; stroke-width:2; stroke-opacity:0.1; fill:none" points="
  1983.08,1877.13 1983.08,132.777 
  "/>
<polyline clip-path="url(#clip932)" style="stroke:#000000; stroke-linecap:butt; stroke-linejoin:round; stroke-width:2; stroke-opacity:0.1; fill:none" points="
  2485,1877.13 2485,132.777 
  "/>
<polyline clip-path="url(#clip930)" style="stroke:#000000; stroke-linecap:butt; stroke-linejoin:round; stroke-width:4; stroke-opacity:1; fill:none" points="
  158.598,1877.13 2552.76,1877.13 
  "/>
<polyline clip-path="url(#clip930)" style="stroke:#000000; stroke-linecap:butt; stroke-linejoin:round; stroke-width:4; stroke-opacity:1; fill:none" points="
  477.317,1877.13 477.317,1858.23 
  "/>
<polyline clip-path="url(#clip930)" style="stroke:#000000; stroke-linecap:butt; stroke-linejoin:round; stroke-width:4; stroke-opacity:1; fill:none" points="
  979.237,1877.13 979.237,1858.23 
  "/>
<polyline clip-path="url(#clip930)" style="stroke:#000000; stroke-linecap:butt; stroke-linejoin:round; stroke-width:4; stroke-opacity:1; fill:none" points="
  1481.16,1877.13 1481.16,1858.23 
  "/>
<polyline clip-path="url(#clip930)" style="stroke:#000000; stroke-linecap:butt; stroke-linejoin:round; stroke-width:4; stroke-opacity:1; fill:none" points="
  1983.08,1877.13 1983.08,1858.23 
  "/>
<polyline clip-path="url(#clip930)" style="stroke:#000000; stroke-linecap:butt; stroke-linejoin:round; stroke-width:4; stroke-opacity:1; fill:none" points="
  2485,1877.13 2485,1858.23 
  "/>
<path clip-path="url(#clip930)" d="M471.97 1935.47 L488.29 1935.47 L488.29 1939.4 L466.345 1939.4 L466.345 1935.47 Q469.007 1932.71 473.591 1928.08 Q478.197 1923.43 479.378 1922.09 Q481.623 1919.57 482.502 1917.83 Q483.405 1916.07 483.405 1914.38 Q483.405 1911.63 481.461 1909.89 Q479.54 1908.15 476.438 1908.15 Q474.239 1908.15 471.785 1908.92 Q469.354 1909.68 466.577 1911.23 L466.577 1906.51 Q469.401 1905.38 471.854 1904.8 Q474.308 1904.22 476.345 1904.22 Q481.715 1904.22 484.91 1906.9 Q488.104 1909.59 488.104 1914.08 Q488.104 1916.21 487.294 1918.13 Q486.507 1920.03 484.401 1922.62 Q483.822 1923.29 480.72 1926.51 Q477.618 1929.7 471.97 1935.47 Z" fill="#000000" fill-rule="evenodd" fill-opacity="1" /><path clip-path="url(#clip930)" d="M982.246 1908.92 L970.441 1927.37 L982.246 1927.37 L982.246 1908.92 M981.02 1904.84 L986.899 1904.84 L986.899 1927.37 L991.83 1927.37 L991.83 1931.25 L986.899 1931.25 L986.899 1939.4 L982.246 1939.4 L982.246 1931.25 L966.645 1931.25 L966.645 1926.74 L981.02 1904.84 Z" fill="#000000" fill-rule="evenodd" fill-opacity="1" /><path clip-path="url(#clip930)" d="M1481.56 1920.26 Q1478.41 1920.26 1476.56 1922.41 Q1474.73 1924.57 1474.73 1928.32 Q1474.73 1932.04 1476.56 1934.22 Q1478.41 1936.37 1481.56 1936.37 Q1484.71 1936.37 1486.54 1934.22 Q1488.39 1932.04 1488.39 1928.32 Q1488.39 1924.57 1486.54 1922.41 Q1484.71 1920.26 1481.56 1920.26 M1490.84 1905.61 L1490.84 1909.87 Q1489.09 1909.03 1487.28 1908.59 Q1485.5 1908.15 1483.74 1908.15 Q1479.11 1908.15 1476.65 1911.28 Q1474.22 1914.4 1473.88 1920.72 Q1475.24 1918.71 1477.3 1917.64 Q1479.36 1916.56 1481.84 1916.56 Q1487.05 1916.56 1490.06 1919.73 Q1493.09 1922.88 1493.09 1928.32 Q1493.09 1933.64 1489.94 1936.86 Q1486.79 1940.07 1481.56 1940.07 Q1475.57 1940.07 1472.4 1935.49 Q1469.22 1930.88 1469.22 1922.16 Q1469.22 1913.96 1473.11 1909.1 Q1477 1904.22 1483.55 1904.22 Q1485.31 1904.22 1487.09 1904.57 Q1488.9 1904.91 1490.84 1905.61 Z" fill="#000000" fill-rule="evenodd" fill-opacity="1" /><path clip-path="url(#clip930)" d="M1983.08 1922.99 Q1979.74 1922.99 1977.82 1924.77 Q1975.92 1926.56 1975.92 1929.68 Q1975.92 1932.81 1977.82 1934.59 Q1979.74 1936.37 1983.08 1936.37 Q1986.41 1936.37 1988.33 1934.59 Q1990.25 1932.78 1990.25 1929.68 Q1990.25 1926.56 1988.33 1924.77 Q1986.43 1922.99 1983.08 1922.99 M1978.4 1921 Q1975.39 1920.26 1973.7 1918.2 Q1972.04 1916.14 1972.04 1913.18 Q1972.04 1909.03 1974.98 1906.63 Q1977.94 1904.22 1983.08 1904.22 Q1988.24 1904.22 1991.18 1906.63 Q1994.12 1909.03 1994.12 1913.18 Q1994.12 1916.14 1992.43 1918.2 Q1990.76 1920.26 1987.78 1921 Q1991.16 1921.79 1993.03 1924.08 Q1994.93 1926.37 1994.93 1929.68 Q1994.93 1934.7 1991.85 1937.39 Q1988.79 1940.07 1983.08 1940.07 Q1977.36 1940.07 1974.28 1937.39 Q1971.23 1934.7 1971.23 1929.68 Q1971.23 1926.37 1973.12 1924.08 Q1975.02 1921.79 1978.4 1921 M1976.69 1913.62 Q1976.69 1916.3 1978.35 1917.81 Q1980.04 1919.31 1983.08 1919.31 Q1986.09 1919.31 1987.78 1917.81 Q1989.49 1916.3 1989.49 1913.62 Q1989.49 1910.93 1987.78 1909.43 Q1986.09 1907.92 1983.08 1907.92 Q1980.04 1907.92 1978.35 1909.43 Q1976.69 1910.93 1976.69 1913.62 Z" fill="#000000" fill-rule="evenodd" fill-opacity="1" /><path clip-path="url(#clip930)" d="M2459.68 1935.47 L2467.32 1935.47 L2467.32 1909.1 L2459.01 1910.77 L2459.01 1906.51 L2467.28 1904.84 L2471.95 1904.84 L2471.95 1935.47 L2479.59 1935.47 L2479.59 1939.4 L2459.68 1939.4 L2459.68 1935.47 Z" fill="#000000" fill-rule="evenodd" fill-opacity="1" /><path clip-path="url(#clip930)" d="M2499.04 1907.92 Q2495.42 1907.92 2493.6 1911.49 Q2491.79 1915.03 2491.79 1922.16 Q2491.79 1929.26 2493.6 1932.83 Q2495.42 1936.37 2499.04 1936.37 Q2502.67 1936.37 2504.48 1932.83 Q2506.3 1929.26 2506.3 1922.16 Q2506.3 1915.03 2504.48 1911.49 Q2502.67 1907.92 2499.04 1907.92 M2499.04 1904.22 Q2504.85 1904.22 2507.9 1908.82 Q2510.98 1913.41 2510.98 1922.16 Q2510.98 1930.88 2507.9 1935.49 Q2504.85 1940.07 2499.04 1940.07 Q2493.23 1940.07 2490.15 1935.49 Q2487.09 1930.88 2487.09 1922.16 Q2487.09 1913.41 2490.15 1908.82 Q2493.23 1904.22 2499.04 1904.22 Z" fill="#000000" fill-rule="evenodd" fill-opacity="1" /><polyline clip-path="url(#clip932)" style="stroke:#000000; stroke-linecap:butt; stroke-linejoin:round; stroke-width:2; stroke-opacity:0.1; fill:none" points="
  158.598,1553.09 2552.76,1553.09 
  "/>
<polyline clip-path="url(#clip932)" style="stroke:#000000; stroke-linecap:butt; stroke-linejoin:round; stroke-width:2; stroke-opacity:0.1; fill:none" points="
  158.598,1207.5 2552.76,1207.5 
  "/>
<polyline clip-path="url(#clip932)" style="stroke:#000000; stroke-linecap:butt; stroke-linejoin:round; stroke-width:2; stroke-opacity:0.1; fill:none" points="
  158.598,861.919 2552.76,861.919 
  "/>
<polyline clip-path="url(#clip932)" style="stroke:#000000; stroke-linecap:butt; stroke-linejoin:round; stroke-width:2; stroke-opacity:0.1; fill:none" points="
  158.598,516.334 2552.76,516.334 
  "/>
<polyline clip-path="url(#clip932)" style="stroke:#000000; stroke-linecap:butt; stroke-linejoin:round; stroke-width:2; stroke-opacity:0.1; fill:none" points="
  158.598,170.749 2552.76,170.749 
  "/>
<polyline clip-path="url(#clip930)" style="stroke:#000000; stroke-linecap:butt; stroke-linejoin:round; stroke-width:4; stroke-opacity:1; fill:none" points="
  158.598,1877.13 158.598,132.777 
  "/>
<polyline clip-path="url(#clip930)" style="stroke:#000000; stroke-linecap:butt; stroke-linejoin:round; stroke-width:4; stroke-opacity:1; fill:none" points="
  158.598,1553.09 177.496,1553.09 
  "/>
<polyline clip-path="url(#clip930)" style="stroke:#000000; stroke-linecap:butt; stroke-linejoin:round; stroke-width:4; stroke-opacity:1; fill:none" points="
  158.598,1207.5 177.496,1207.5 
  "/>
<polyline clip-path="url(#clip930)" style="stroke:#000000; stroke-linecap:butt; stroke-linejoin:round; stroke-width:4; stroke-opacity:1; fill:none" points="
  158.598,861.919 177.496,861.919 
  "/>
<polyline clip-path="url(#clip930)" style="stroke:#000000; stroke-linecap:butt; stroke-linejoin:round; stroke-width:4; stroke-opacity:1; fill:none" points="
  158.598,516.334 177.496,516.334 
  "/>
<polyline clip-path="url(#clip930)" style="stroke:#000000; stroke-linecap:butt; stroke-linejoin:round; stroke-width:4; stroke-opacity:1; fill:none" points="
  158.598,170.749 177.496,170.749 
  "/>
<path clip-path="url(#clip930)" d="M64.0198 1538.89 Q60.4087 1538.89 58.58 1542.45 Q56.7745 1545.99 56.7745 1553.12 Q56.7745 1560.23 58.58 1563.8 Q60.4087 1567.34 64.0198 1567.34 Q67.6541 1567.34 69.4596 1563.8 Q71.2883 1560.23 71.2883 1553.12 Q71.2883 1545.99 69.4596 1542.45 Q67.6541 1538.89 64.0198 1538.89 M64.0198 1535.18 Q69.83 1535.18 72.8855 1539.79 Q75.9642 1544.37 75.9642 1553.12 Q75.9642 1561.85 72.8855 1566.46 Q69.83 1571.04 64.0198 1571.04 Q58.2097 1571.04 55.131 1566.46 Q52.0754 1561.85 52.0754 1553.12 Q52.0754 1544.37 55.131 1539.79 Q58.2097 1535.18 64.0198 1535.18 Z" fill="#000000" fill-rule="evenodd" fill-opacity="1" /><path clip-path="url(#clip930)" d="M84.1818 1564.49 L89.066 1564.49 L89.066 1570.37 L84.1818 1570.37 L84.1818 1564.49 Z" fill="#000000" fill-rule="evenodd" fill-opacity="1" /><path clip-path="url(#clip930)" d="M103.279 1566.43 L119.598 1566.43 L119.598 1570.37 L97.6539 1570.37 L97.6539 1566.43 Q100.316 1563.68 104.899 1559.05 Q109.506 1554.4 110.686 1553.05 Q112.932 1550.53 113.811 1548.8 Q114.714 1547.04 114.714 1545.35 Q114.714 1542.59 112.77 1540.86 Q110.848 1539.12 107.746 1539.12 Q105.547 1539.12 103.094 1539.88 Q100.663 1540.65 97.8854 1542.2 L97.8854 1537.48 Q100.709 1536.34 103.163 1535.76 Q105.617 1535.18 107.654 1535.18 Q113.024 1535.18 116.219 1537.87 Q119.413 1540.55 119.413 1545.05 Q119.413 1547.18 118.603 1549.1 Q117.816 1550.99 115.709 1553.59 Q115.131 1554.26 112.029 1557.48 Q108.927 1560.67 103.279 1566.43 Z" fill="#000000" fill-rule="evenodd" fill-opacity="1" /><path clip-path="url(#clip930)" d="M61.9365 1193.3 Q58.3254 1193.3 56.4967 1196.87 Q54.6912 1200.41 54.6912 1207.54 Q54.6912 1214.65 56.4967 1218.21 Q58.3254 1221.75 61.9365 1221.75 Q65.5707 1221.75 67.3763 1218.21 Q69.205 1214.65 69.205 1207.54 Q69.205 1200.41 67.3763 1196.87 Q65.5707 1193.3 61.9365 1193.3 M61.9365 1189.6 Q67.7467 1189.6 70.8022 1194.21 Q73.8809 1198.79 73.8809 1207.54 Q73.8809 1216.27 70.8022 1220.87 Q67.7467 1225.46 61.9365 1225.46 Q56.1264 1225.46 53.0477 1220.87 Q49.9921 1216.27 49.9921 1207.54 Q49.9921 1198.79 53.0477 1194.21 Q56.1264 1189.6 61.9365 1189.6 Z" fill="#000000" fill-rule="evenodd" fill-opacity="1" /><path clip-path="url(#clip930)" d="M82.0984 1218.9 L86.9827 1218.9 L86.9827 1224.78 L82.0984 1224.78 L82.0984 1218.9 Z" fill="#000000" fill-rule="evenodd" fill-opacity="1" /><path clip-path="url(#clip930)" d="M110.015 1194.3 L98.2095 1212.75 L110.015 1212.75 L110.015 1194.3 M108.788 1190.22 L114.668 1190.22 L114.668 1212.75 L119.598 1212.75 L119.598 1216.64 L114.668 1216.64 L114.668 1224.78 L110.015 1224.78 L110.015 1216.64 L94.4132 1216.64 L94.4132 1212.12 L108.788 1190.22 Z" fill="#000000" fill-rule="evenodd" fill-opacity="1" /><path clip-path="url(#clip930)" d="M62.2606 847.718 Q58.6495 847.718 56.8208 851.283 Q55.0152 854.824 55.0152 861.954 Q55.0152 869.06 56.8208 872.625 Q58.6495 876.167 62.2606 876.167 Q65.8948 876.167 67.7004 872.625 Q69.5291 869.06 69.5291 861.954 Q69.5291 854.824 67.7004 851.283 Q65.8948 847.718 62.2606 847.718 M62.2606 844.014 Q68.0707 844.014 71.1263 848.621 Q74.205 853.204 74.205 861.954 Q74.205 870.681 71.1263 875.287 Q68.0707 879.871 62.2606 879.871 Q56.4504 879.871 53.3717 875.287 Q50.3162 870.681 50.3162 861.954 Q50.3162 853.204 53.3717 848.621 Q56.4504 844.014 62.2606 844.014 Z" fill="#000000" fill-rule="evenodd" fill-opacity="1" /><path clip-path="url(#clip930)" d="M82.4225 873.32 L87.3067 873.32 L87.3067 879.199 L82.4225 879.199 L82.4225 873.32 Z" fill="#000000" fill-rule="evenodd" fill-opacity="1" /><path clip-path="url(#clip930)" d="M108.071 860.056 Q104.922 860.056 103.071 862.209 Q101.242 864.361 101.242 868.111 Q101.242 871.838 103.071 874.014 Q104.922 876.167 108.071 876.167 Q111.219 876.167 113.047 874.014 Q114.899 871.838 114.899 868.111 Q114.899 864.361 113.047 862.209 Q111.219 860.056 108.071 860.056 M117.353 845.403 L117.353 849.662 Q115.594 848.829 113.788 848.389 Q112.006 847.949 110.246 847.949 Q105.617 847.949 103.163 851.074 Q100.733 854.199 100.385 860.519 Q101.751 858.505 103.811 857.44 Q105.871 856.352 108.348 856.352 Q113.557 856.352 116.566 859.523 Q119.598 862.672 119.598 868.111 Q119.598 873.435 116.45 876.653 Q113.302 879.871 108.071 879.871 Q102.075 879.871 98.9039 875.287 Q95.7326 870.681 95.7326 861.954 Q95.7326 853.76 99.6215 848.899 Q103.51 844.014 110.061 844.014 Q111.82 844.014 113.603 844.362 Q115.408 844.709 117.353 845.403 Z" fill="#000000" fill-rule="evenodd" fill-opacity="1" /><path clip-path="url(#clip930)" d="M62.5152 502.133 Q58.9041 502.133 57.0754 505.698 Q55.2699 509.239 55.2699 516.369 Q55.2699 523.475 57.0754 527.04 Q58.9041 530.582 62.5152 530.582 Q66.1494 530.582 67.955 527.04 Q69.7837 523.475 69.7837 516.369 Q69.7837 509.239 67.955 505.698 Q66.1494 502.133 62.5152 502.133 M62.5152 498.429 Q68.3254 498.429 71.3809 503.036 Q74.4596 507.619 74.4596 516.369 Q74.4596 525.096 71.3809 529.702 Q68.3254 534.285 62.5152 534.285 Q56.7051 534.285 53.6264 529.702 Q50.5708 525.096 50.5708 516.369 Q50.5708 507.619 53.6264 503.036 Q56.7051 498.429 62.5152 498.429 Z" fill="#000000" fill-rule="evenodd" fill-opacity="1" /><path clip-path="url(#clip930)" d="M82.6771 527.735 L87.5614 527.735 L87.5614 533.614 L82.6771 533.614 L82.6771 527.735 Z" fill="#000000" fill-rule="evenodd" fill-opacity="1" /><path clip-path="url(#clip930)" d="M107.746 517.202 Q104.413 517.202 102.492 518.985 Q100.594 520.767 100.594 523.892 Q100.594 527.017 102.492 528.799 Q104.413 530.582 107.746 530.582 Q111.08 530.582 113.001 528.799 Q114.922 526.994 114.922 523.892 Q114.922 520.767 113.001 518.985 Q111.103 517.202 107.746 517.202 M103.071 515.211 Q100.061 514.471 98.3715 512.411 Q96.7048 510.35 96.7048 507.387 Q96.7048 503.244 99.6446 500.837 Q102.608 498.429 107.746 498.429 Q112.908 498.429 115.848 500.837 Q118.788 503.244 118.788 507.387 Q118.788 510.35 117.098 512.411 Q115.432 514.471 112.445 515.211 Q115.825 515.998 117.7 518.29 Q119.598 520.582 119.598 523.892 Q119.598 528.915 116.52 531.6 Q113.464 534.285 107.746 534.285 Q102.029 534.285 98.9502 531.6 Q95.8947 528.915 95.8947 523.892 Q95.8947 520.582 97.7928 518.29 Q99.6909 515.998 103.071 515.211 M101.358 507.827 Q101.358 510.512 103.024 512.017 Q104.714 513.522 107.746 513.522 Q110.756 513.522 112.445 512.017 Q114.158 510.512 114.158 507.827 Q114.158 505.142 112.445 503.637 Q110.756 502.133 107.746 502.133 Q104.714 502.133 103.024 503.637 Q101.358 505.142 101.358 507.827 Z" fill="#000000" fill-rule="evenodd" fill-opacity="1" /><path clip-path="url(#clip930)" d="M53.2328 184.094 L60.8717 184.094 L60.8717 157.728 L52.5616 159.395 L52.5616 155.136 L60.8254 153.469 L65.5013 153.469 L65.5013 184.094 L73.1402 184.094 L73.1402 188.029 L53.2328 188.029 L53.2328 184.094 Z" fill="#000000" fill-rule="evenodd" fill-opacity="1" /><path clip-path="url(#clip930)" d="M82.5845 182.149 L87.4688 182.149 L87.4688 188.029 L82.5845 188.029 L82.5845 182.149 Z" fill="#000000" fill-rule="evenodd" fill-opacity="1" /><path clip-path="url(#clip930)" d="M107.654 156.548 Q104.043 156.548 102.214 160.112 Q100.409 163.654 100.409 170.784 Q100.409 177.89 102.214 181.455 Q104.043 184.997 107.654 184.997 Q111.288 184.997 113.094 181.455 Q114.922 177.89 114.922 170.784 Q114.922 163.654 113.094 160.112 Q111.288 156.548 107.654 156.548 M107.654 152.844 Q113.464 152.844 116.52 157.45 Q119.598 162.034 119.598 170.784 Q119.598 179.51 116.52 184.117 Q113.464 188.7 107.654 188.7 Q101.844 188.7 98.765 184.117 Q95.7095 179.51 95.7095 170.784 Q95.7095 162.034 98.765 157.45 Q101.844 152.844 107.654 152.844 Z" fill="#000000" fill-rule="evenodd" fill-opacity="1" /><path clip-path="url(#clip930)" d="M965.879 63.9476 L965.879 47.7034 L952.511 47.7034 L952.511 40.9789 L973.981 40.9789 L973.981 66.9452 Q969.241 70.3075 963.529 72.0494 Q957.818 73.7508 951.336 73.7508 Q937.158 73.7508 929.137 65.4869 Q921.157 57.1826 921.157 42.3968 Q921.157 27.5705 929.137 19.3066 Q937.158 11.0023 951.336 11.0023 Q957.25 11.0023 962.557 12.4606 Q967.904 13.9189 972.401 16.7545 L972.401 25.464 Q967.864 21.6156 962.76 19.6712 Q957.655 17.7268 952.025 17.7268 Q940.925 17.7268 935.335 23.9246 Q929.785 30.1225 929.785 42.3968 Q929.785 54.6305 935.335 60.8284 Q940.925 67.0263 952.025 67.0263 Q956.359 67.0263 959.762 66.2971 Q963.165 65.5274 965.879 63.9476 Z" fill="#000000" fill-rule="evenodd" fill-opacity="1" /><path clip-path="url(#clip930)" d="M1014.89 34.1734 Q1013.64 33.4443 1012.14 33.1202 Q1010.68 32.7556 1008.9 32.7556 Q1002.58 32.7556 999.177 36.8875 Q995.815 40.9789 995.815 48.6757 L995.815 72.576 L988.321 72.576 L988.321 27.2059 L995.815 27.2059 L995.815 34.2544 Q998.165 30.1225 1001.93 28.1376 Q1005.7 26.1121 1011.09 26.1121 Q1011.86 26.1121 1012.79 26.2337 Q1013.72 26.3147 1014.85 26.5172 L1014.89 34.1734 Z" fill="#000000" fill-rule="evenodd" fill-opacity="1" /><path clip-path="url(#clip930)" d="M1043.33 49.7694 Q1034.3 49.7694 1030.81 51.8354 Q1027.33 53.9013 1027.33 58.8839 Q1027.33 62.8538 1029.92 65.2034 Q1032.56 67.5124 1037.05 67.5124 Q1043.25 67.5124 1046.98 63.1374 Q1050.75 58.7219 1050.75 51.4303 L1050.75 49.7694 L1043.33 49.7694 M1058.2 46.6907 L1058.2 72.576 L1050.75 72.576 L1050.75 65.6895 Q1048.19 69.8214 1044.39 71.8063 Q1040.58 73.7508 1035.07 73.7508 Q1028.1 73.7508 1023.97 69.8619 Q1019.88 65.9325 1019.88 59.3701 Q1019.88 51.7138 1024.98 47.825 Q1030.13 43.9361 1040.29 43.9361 L1050.75 43.9361 L1050.75 43.2069 Q1050.75 38.0623 1047.34 35.2672 Q1043.98 32.4315 1037.86 32.4315 Q1033.97 32.4315 1030.29 33.3632 Q1026.6 34.295 1023.2 36.1584 L1023.2 29.2718 Q1027.29 27.692 1031.14 26.9223 Q1034.99 26.1121 1038.63 26.1121 Q1048.48 26.1121 1053.34 31.2163 Q1058.2 36.3204 1058.2 46.6907 M1044.59 6.22219 L1052.65 6.22219 L1039.44 21.4536 L1033.25 21.4536 L1044.59 6.22219 Z" fill="#000000" fill-rule="evenodd" fill-opacity="1" /><path clip-path="url(#clip930)" d="M1096.52 9.54393 L1096.52 15.7418 L1089.39 15.7418 Q1085.38 15.7418 1083.8 17.3622 Q1082.26 18.9825 1082.26 23.1955 L1082.26 27.2059 L1094.54 27.2059 L1094.54 32.9987 L1082.26 32.9987 L1082.26 72.576 L1074.77 72.576 L1074.77 32.9987 L1067.64 32.9987 L1067.64 27.2059 L1074.77 27.2059 L1074.77 24.0462 Q1074.77 16.471 1078.29 13.0277 Q1081.82 9.54393 1089.47 9.54393 L1096.52 9.54393 Z" fill="#000000" fill-rule="evenodd" fill-opacity="1" /><path clip-path="url(#clip930)" d="M1102.76 27.2059 L1110.21 27.2059 L1110.21 72.576 L1102.76 72.576 L1102.76 27.2059 M1102.76 9.54393 L1110.21 9.54393 L1110.21 18.9825 L1102.76 18.9825 L1102.76 9.54393 Z" fill="#000000" fill-rule="evenodd" fill-opacity="1" /><path clip-path="url(#clip930)" d="M1158.46 28.9478 L1158.46 35.9153 Q1155.3 34.1734 1152.1 33.3227 Q1148.94 32.4315 1145.7 32.4315 Q1138.45 32.4315 1134.44 37.0496 Q1130.43 41.6271 1130.43 49.9314 Q1130.43 58.2358 1134.44 62.8538 Q1138.45 67.4314 1145.7 67.4314 Q1148.94 67.4314 1152.1 66.5807 Q1155.3 65.6895 1158.46 63.9476 L1158.46 70.8341 Q1155.34 72.2924 1151.98 73.0216 Q1148.66 73.7508 1144.89 73.7508 Q1134.64 73.7508 1128.6 67.3098 Q1122.57 60.8689 1122.57 49.9314 Q1122.57 38.832 1128.64 32.472 Q1134.76 26.1121 1145.37 26.1121 Q1148.82 26.1121 1152.1 26.8413 Q1155.38 27.5299 1158.46 28.9478 Z" fill="#000000" fill-rule="evenodd" fill-opacity="1" /><path clip-path="url(#clip930)" d="M1192.04 49.7694 Q1183.01 49.7694 1179.52 51.8354 Q1176.04 53.9013 1176.04 58.8839 Q1176.04 62.8538 1178.63 65.2034 Q1181.27 67.5124 1185.76 67.5124 Q1191.96 67.5124 1195.69 63.1374 Q1199.45 58.7219 1199.45 51.4303 L1199.45 49.7694 L1192.04 49.7694 M1206.91 46.6907 L1206.91 72.576 L1199.45 72.576 L1199.45 65.6895 Q1196.9 69.8214 1193.09 71.8063 Q1189.29 73.7508 1183.78 73.7508 Q1176.81 73.7508 1172.68 69.8619 Q1168.59 65.9325 1168.59 59.3701 Q1168.59 51.7138 1173.69 47.825 Q1178.83 43.9361 1189 43.9361 L1199.45 43.9361 L1199.45 43.2069 Q1199.45 38.0623 1196.05 35.2672 Q1192.69 32.4315 1186.57 32.4315 Q1182.68 32.4315 1179 33.3632 Q1175.31 34.295 1171.91 36.1584 L1171.91 29.2718 Q1176 27.692 1179.85 26.9223 Q1183.7 26.1121 1187.34 26.1121 Q1197.19 26.1121 1202.05 31.2163 Q1206.91 36.3204 1206.91 46.6907 Z" fill="#000000" fill-rule="evenodd" fill-opacity="1" /><path clip-path="url(#clip930)" d="M1278.49 34.0924 L1278.49 9.54393 L1285.94 9.54393 L1285.94 72.576 L1278.49 72.576 L1278.49 65.7705 Q1276.14 69.8214 1272.53 71.8063 Q1268.97 73.7508 1263.94 73.7508 Q1255.72 73.7508 1250.54 67.1883 Q1245.39 60.6258 1245.39 49.9314 Q1245.39 39.2371 1250.54 32.6746 Q1255.72 26.1121 1263.94 26.1121 Q1268.97 26.1121 1272.53 28.0971 Q1276.14 30.0415 1278.49 34.0924 M1253.09 49.9314 Q1253.09 58.1548 1256.45 62.8538 Q1259.85 67.5124 1265.77 67.5124 Q1271.68 67.5124 1275.08 62.8538 Q1278.49 58.1548 1278.49 49.9314 Q1278.49 41.7081 1275.08 37.0496 Q1271.68 32.3505 1265.77 32.3505 Q1259.85 32.3505 1256.45 37.0496 Q1253.09 41.7081 1253.09 49.9314 Z" fill="#000000" fill-rule="evenodd" fill-opacity="1" /><path clip-path="url(#clip930)" d="M1340.1 48.0275 L1340.1 51.6733 L1305.83 51.6733 Q1306.32 59.3701 1310.45 63.421 Q1314.62 67.4314 1322.03 67.4314 Q1326.33 67.4314 1330.34 66.3781 Q1334.39 65.3249 1338.36 63.2184 L1338.36 70.267 Q1334.35 71.9684 1330.14 72.8596 Q1325.92 73.7508 1321.59 73.7508 Q1310.73 73.7508 1304.37 67.4314 Q1298.05 61.1119 1298.05 50.3365 Q1298.05 39.1965 1304.05 32.6746 Q1310.08 26.1121 1320.29 26.1121 Q1329.45 26.1121 1334.75 32.0264 Q1340.1 37.9003 1340.1 48.0275 M1332.65 45.84 Q1332.57 39.7232 1329.2 36.0774 Q1325.88 32.4315 1320.37 32.4315 Q1314.14 32.4315 1310.37 35.9558 Q1306.64 39.4801 1306.07 45.8805 L1332.65 45.84 Z" fill="#000000" fill-rule="evenodd" fill-opacity="1" /><path clip-path="url(#clip930)" d="M1408.56 34.0924 L1408.56 9.54393 L1416.02 9.54393 L1416.02 72.576 L1408.56 72.576 L1408.56 65.7705 Q1406.21 69.8214 1402.61 71.8063 Q1399.04 73.7508 1394.02 73.7508 Q1385.8 73.7508 1380.61 67.1883 Q1375.47 60.6258 1375.47 49.9314 Q1375.47 39.2371 1380.61 32.6746 Q1385.8 26.1121 1394.02 26.1121 Q1399.04 26.1121 1402.61 28.0971 Q1406.21 30.0415 1408.56 34.0924 M1383.16 49.9314 Q1383.16 58.1548 1386.52 62.8538 Q1389.93 67.5124 1395.84 67.5124 Q1401.76 67.5124 1405.16 62.8538 Q1408.56 58.1548 1408.56 49.9314 Q1408.56 41.7081 1405.16 37.0496 Q1401.76 32.3505 1395.84 32.3505 Q1389.93 32.3505 1386.52 37.0496 Q1383.16 41.7081 1383.16 49.9314 Z" fill="#000000" fill-rule="evenodd" fill-opacity="1" /><path clip-path="url(#clip930)" d="M1431.37 27.2059 L1438.82 27.2059 L1438.82 72.576 L1431.37 72.576 L1431.37 27.2059 M1431.37 9.54393 L1438.82 9.54393 L1438.82 18.9825 L1431.37 18.9825 L1431.37 9.54393 Z" fill="#000000" fill-rule="evenodd" fill-opacity="1" /><path clip-path="url(#clip930)" d="M1483.34 28.5427 L1483.34 35.5912 Q1480.18 33.9709 1476.78 33.1607 Q1473.38 32.3505 1469.73 32.3505 Q1464.18 32.3505 1461.39 34.0519 Q1458.63 35.7533 1458.63 39.156 Q1458.63 41.7486 1460.62 43.2475 Q1462.6 44.7058 1468.6 46.0426 L1471.15 46.6097 Q1479.09 48.3111 1482.41 51.4303 Q1485.77 54.509 1485.77 60.0587 Q1485.77 66.3781 1480.75 70.0644 Q1475.77 73.7508 1467.02 73.7508 Q1463.37 73.7508 1459.4 73.0216 Q1455.47 72.3329 1451.1 70.9151 L1451.1 63.2184 Q1455.23 65.3654 1459.24 66.4591 Q1463.25 67.5124 1467.18 67.5124 Q1472.44 67.5124 1475.28 65.73 Q1478.12 63.9071 1478.12 60.6258 Q1478.12 57.5877 1476.05 55.9673 Q1474.02 54.3469 1467.1 52.8481 L1464.5 52.2405 Q1457.58 50.7821 1454.5 47.7845 Q1451.42 44.7463 1451.42 39.4801 Q1451.42 33.0797 1455.96 29.5959 Q1460.49 26.1121 1468.84 26.1121 Q1472.97 26.1121 1476.62 26.7198 Q1480.26 27.3274 1483.34 28.5427 Z" fill="#000000" fill-rule="evenodd" fill-opacity="1" /><path clip-path="url(#clip930)" d="M1504.85 65.7705 L1504.85 89.8329 L1497.36 89.8329 L1497.36 27.2059 L1504.85 27.2059 L1504.85 34.0924 Q1507.2 30.0415 1510.77 28.0971 Q1514.37 26.1121 1519.35 26.1121 Q1527.62 26.1121 1532.76 32.6746 Q1537.95 39.2371 1537.95 49.9314 Q1537.95 60.6258 1532.76 67.1883 Q1527.62 73.7508 1519.35 73.7508 Q1514.37 73.7508 1510.77 71.8063 Q1507.2 69.8214 1504.85 65.7705 M1530.21 49.9314 Q1530.21 41.7081 1526.81 37.0496 Q1523.45 32.3505 1517.53 32.3505 Q1511.62 32.3505 1508.21 37.0496 Q1504.85 41.7081 1504.85 49.9314 Q1504.85 58.1548 1508.21 62.8538 Q1511.62 67.5124 1517.53 67.5124 Q1523.45 67.5124 1526.81 62.8538 Q1530.21 58.1548 1530.21 49.9314 Z" fill="#000000" fill-rule="evenodd" fill-opacity="1" /><path clip-path="url(#clip930)" d="M1589.11 48.0275 L1589.11 51.6733 L1554.84 51.6733 Q1555.33 59.3701 1559.46 63.421 Q1563.63 67.4314 1571.04 67.4314 Q1575.34 67.4314 1579.35 66.3781 Q1583.4 65.3249 1587.37 63.2184 L1587.37 70.267 Q1583.36 71.9684 1579.15 72.8596 Q1574.93 73.7508 1570.6 73.7508 Q1559.74 73.7508 1553.38 67.4314 Q1547.06 61.1119 1547.06 50.3365 Q1547.06 39.1965 1553.06 32.6746 Q1559.09 26.1121 1569.3 26.1121 Q1578.46 26.1121 1583.76 32.0264 Q1589.11 37.9003 1589.11 48.0275 M1581.66 45.84 Q1581.58 39.7232 1578.21 36.0774 Q1574.89 32.4315 1569.38 32.4315 Q1563.14 32.4315 1559.38 35.9558 Q1555.65 39.4801 1555.08 45.8805 L1581.66 45.84 Z" fill="#000000" fill-rule="evenodd" fill-opacity="1" /><path clip-path="url(#clip930)" d="M1627.63 34.1734 Q1626.38 33.4443 1624.88 33.1202 Q1623.42 32.7556 1621.64 32.7556 Q1615.32 32.7556 1611.92 36.8875 Q1608.55 40.9789 1608.55 48.6757 L1608.55 72.576 L1601.06 72.576 L1601.06 27.2059 L1608.55 27.2059 L1608.55 34.2544 Q1610.9 30.1225 1614.67 28.1376 Q1618.44 26.1121 1623.83 26.1121 Q1624.6 26.1121 1625.53 26.2337 Q1626.46 26.3147 1627.59 26.5172 L1627.63 34.1734 Z" fill="#000000" fill-rule="evenodd" fill-opacity="1" /><path clip-path="url(#clip930)" d="M1664.38 28.5427 L1664.38 35.5912 Q1661.22 33.9709 1657.81 33.1607 Q1654.41 32.3505 1650.77 32.3505 Q1645.22 32.3505 1642.42 34.0519 Q1639.67 35.7533 1639.67 39.156 Q1639.67 41.7486 1641.65 43.2475 Q1643.64 44.7058 1649.63 46.0426 L1652.18 46.6097 Q1660.12 48.3111 1663.44 51.4303 Q1666.81 54.509 1666.81 60.0587 Q1666.81 66.3781 1661.78 70.0644 Q1656.8 73.7508 1648.05 73.7508 Q1644.41 73.7508 1640.44 73.0216 Q1636.51 72.3329 1632.13 70.9151 L1632.13 63.2184 Q1636.26 65.3654 1640.27 66.4591 Q1644.28 67.5124 1648.21 67.5124 Q1653.48 67.5124 1656.31 65.73 Q1659.15 63.9071 1659.15 60.6258 Q1659.15 57.5877 1657.08 55.9673 Q1655.06 54.3469 1648.13 52.8481 L1645.54 52.2405 Q1638.61 50.7821 1635.53 47.7845 Q1632.46 44.7463 1632.46 39.4801 Q1632.46 33.0797 1636.99 29.5959 Q1641.53 26.1121 1649.87 26.1121 Q1654.01 26.1121 1657.65 26.7198 Q1661.3 27.3274 1664.38 28.5427 Z" fill="#000000" fill-rule="evenodd" fill-opacity="1" /><path clip-path="url(#clip930)" d="M1678.68 27.2059 L1686.13 27.2059 L1686.13 72.576 L1678.68 72.576 L1678.68 27.2059 M1678.68 9.54393 L1686.13 9.54393 L1686.13 18.9825 L1678.68 18.9825 L1678.68 9.54393 Z" fill="#000000" fill-rule="evenodd" fill-opacity="1" /><path clip-path="url(#clip930)" d="M1719.31 32.4315 Q1713.31 32.4315 1709.83 37.1306 Q1706.34 41.7891 1706.34 49.9314 Q1706.34 58.0738 1709.79 62.7728 Q1713.27 67.4314 1719.31 67.4314 Q1725.26 67.4314 1728.75 62.7323 Q1732.23 58.0333 1732.23 49.9314 Q1732.23 41.8701 1728.75 37.1711 Q1725.26 32.4315 1719.31 32.4315 M1719.31 26.1121 Q1729.03 26.1121 1734.58 32.4315 Q1740.13 38.7509 1740.13 49.9314 Q1740.13 61.0714 1734.58 67.4314 Q1729.03 73.7508 1719.31 73.7508 Q1709.54 73.7508 1703.99 67.4314 Q1698.48 61.0714 1698.48 49.9314 Q1698.48 38.7509 1703.99 32.4315 Q1709.54 26.1121 1719.31 26.1121 M1724.94 6.22219 L1733 6.22219 L1719.79 21.4536 L1713.59 21.4536 L1724.94 6.22219 Z" fill="#000000" fill-rule="evenodd" fill-opacity="1" /><path clip-path="url(#clip930)" d="M1790.2 45.1919 L1790.2 72.576 L1782.74 72.576 L1782.74 45.4349 Q1782.74 38.994 1780.23 35.7938 Q1777.72 32.5936 1772.7 32.5936 Q1766.66 32.5936 1763.18 36.4419 Q1759.69 40.2903 1759.69 46.9338 L1759.69 72.576 L1752.2 72.576 L1752.2 27.2059 L1759.69 27.2059 L1759.69 34.2544 Q1762.37 30.163 1765.97 28.1376 Q1769.62 26.1121 1774.36 26.1121 Q1782.18 26.1121 1786.19 30.9732 Q1790.2 35.7938 1790.2 45.1919 Z" fill="#000000" fill-rule="evenodd" fill-opacity="1" /><circle clip-path="url(#clip932)" cx="226.357" cy="1699.69" r="14" fill="#009af9" fill-rule="evenodd" fill-opacity="1" stroke="#000000" stroke-opacity="1" stroke-width="4"/>
<circle clip-path="url(#clip932)" cx="477.317" cy="1235.32" r="14" fill="#009af9" fill-rule="evenodd" fill-opacity="1" stroke="#000000" stroke-opacity="1" stroke-width="4"/>
<circle clip-path="url(#clip932)" cx="728.277" cy="1706.35" r="14" fill="#009af9" fill-rule="evenodd" fill-opacity="1" stroke="#000000" stroke-opacity="1" stroke-width="4"/>
<circle clip-path="url(#clip932)" cx="979.237" cy="1373.48" r="14" fill="#009af9" fill-rule="evenodd" fill-opacity="1" stroke="#000000" stroke-opacity="1" stroke-width="4"/>
<circle clip-path="url(#clip932)" cx="1230.2" cy="1042.11" r="14" fill="#009af9" fill-rule="evenodd" fill-opacity="1" stroke="#000000" stroke-opacity="1" stroke-width="4"/>
<circle clip-path="url(#clip932)" cx="1481.16" cy="265.241" r="14" fill="#009af9" fill-rule="evenodd" fill-opacity="1" stroke="#000000" stroke-opacity="1" stroke-width="4"/>
<circle clip-path="url(#clip932)" cx="1732.12" cy="1403.14" r="14" fill="#009af9" fill-rule="evenodd" fill-opacity="1" stroke="#000000" stroke-opacity="1" stroke-width="4"/>
<circle clip-path="url(#clip932)" cx="1983.08" cy="977.58" r="14" fill="#009af9" fill-rule="evenodd" fill-opacity="1" stroke="#000000" stroke-opacity="1" stroke-width="4"/>
<circle clip-path="url(#clip932)" cx="2234.04" cy="632.667" r="14" fill="#009af9" fill-rule="evenodd" fill-opacity="1" stroke="#000000" stroke-opacity="1" stroke-width="4"/>
<circle clip-path="url(#clip932)" cx="2485" cy="1234.9" r="14" fill="#009af9" fill-rule="evenodd" fill-opacity="1" stroke="#000000" stroke-opacity="1" stroke-width="4"/>
<circle clip-path="url(#clip932)" cx="226.357" cy="1310.04" r="14" fill="#e26f46" fill-rule="evenodd" fill-opacity="1" stroke="#000000" stroke-opacity="1" stroke-width="4"/>
<circle clip-path="url(#clip932)" cx="477.317" cy="182.145" r="14" fill="#e26f46" fill-rule="evenodd" fill-opacity="1" stroke="#000000" stroke-opacity="1" stroke-width="4"/>
<circle clip-path="url(#clip932)" cx="728.277" cy="1400.73" r="14" fill="#e26f46" fill-rule="evenodd" fill-opacity="1" stroke="#000000" stroke-opacity="1" stroke-width="4"/>
<circle clip-path="url(#clip932)" cx="979.237" cy="433.995" r="14" fill="#e26f46" fill-rule="evenodd" fill-opacity="1" stroke="#000000" stroke-opacity="1" stroke-width="4"/>
<circle clip-path="url(#clip932)" cx="1230.2" cy="1616.27" r="14" fill="#e26f46" fill-rule="evenodd" fill-opacity="1" stroke="#000000" stroke-opacity="1" stroke-width="4"/>
<circle clip-path="url(#clip932)" cx="1481.16" cy="1314.4" r="14" fill="#e26f46" fill-rule="evenodd" fill-opacity="1" stroke="#000000" stroke-opacity="1" stroke-width="4"/>
<circle clip-path="url(#clip932)" cx="1732.12" cy="1827.76" r="14" fill="#e26f46" fill-rule="evenodd" fill-opacity="1" stroke="#000000" stroke-opacity="1" stroke-width="4"/>
<circle clip-path="url(#clip932)" cx="1983.08" cy="736.6" r="14" fill="#e26f46" fill-rule="evenodd" fill-opacity="1" stroke="#000000" stroke-opacity="1" stroke-width="4"/>
<circle clip-path="url(#clip932)" cx="2234.04" cy="1643.59" r="14" fill="#e26f46" fill-rule="evenodd" fill-opacity="1" stroke="#000000" stroke-opacity="1" stroke-width="4"/>
<circle clip-path="url(#clip932)" cx="2485" cy="186.201" r="14" fill="#e26f46" fill-rule="evenodd" fill-opacity="1" stroke="#000000" stroke-opacity="1" stroke-width="4"/>
<path clip-path="url(#clip930)" d="
M2154.5 346.442 L2472.95 346.442 L2472.95 190.922 L2154.5 190.922  Z
  " fill="#ffffff" fill-rule="evenodd" fill-opacity="1"/>
<polyline clip-path="url(#clip930)" style="stroke:#000000; stroke-linecap:butt; stroke-linejoin:round; stroke-width:4; stroke-opacity:1; fill:none" points="
  2154.5,346.442 2472.95,346.442 2472.95,190.922 2154.5,190.922 2154.5,346.442 
  "/>
<circle clip-path="url(#clip930)" cx="2260.91" cy="242.762" r="23" fill="#009af9" fill-rule="evenodd" fill-opacity="1" stroke="#000000" stroke-opacity="1" stroke-width="6.4"/>
<path clip-path="url(#clip930)" d="M2381.16 262.449 Q2379.35 267.079 2377.64 268.491 Q2375.93 269.903 2373.06 269.903 L2369.65 269.903 L2369.65 266.338 L2372.15 266.338 Q2373.91 266.338 2374.89 265.505 Q2375.86 264.671 2377.04 261.57 L2377.8 259.625 L2367.32 234.116 L2371.83 234.116 L2379.93 254.394 L2388.03 234.116 L2392.55 234.116 L2381.16 262.449 Z" fill="#000000" fill-rule="evenodd" fill-opacity="1" /><path clip-path="url(#clip930)" d="M2399.84 256.107 L2407.48 256.107 L2407.48 229.741 L2399.17 231.408 L2399.17 227.149 L2407.43 225.482 L2412.11 225.482 L2412.11 256.107 L2419.75 256.107 L2419.75 260.042 L2399.84 260.042 L2399.84 256.107 Z" fill="#000000" fill-rule="evenodd" fill-opacity="1" /><circle clip-path="url(#clip930)" cx="2260.91" cy="294.602" r="23" fill="#e26f46" fill-rule="evenodd" fill-opacity="1" stroke="#000000" stroke-opacity="1" stroke-width="6.4"/>
<path clip-path="url(#clip930)" d="M2381.16 314.289 Q2379.35 318.919 2377.64 320.331 Q2375.93 321.743 2373.06 321.743 L2369.65 321.743 L2369.65 318.178 L2372.15 318.178 Q2373.91 318.178 2374.89 317.345 Q2375.86 316.511 2377.04 313.41 L2377.8 311.465 L2367.32 285.956 L2371.83 285.956 L2379.93 306.234 L2388.03 285.956 L2392.55 285.956 L2381.16 314.289 Z" fill="#000000" fill-rule="evenodd" fill-opacity="1" /><path clip-path="url(#clip930)" d="M2403.06 307.947 L2419.38 307.947 L2419.38 311.882 L2397.43 311.882 L2397.43 307.947 Q2400.09 305.192 2404.68 300.562 Q2409.28 295.91 2410.46 294.567 Q2412.71 292.044 2413.59 290.308 Q2414.49 288.549 2414.49 286.859 Q2414.49 284.104 2412.55 282.368 Q2410.63 280.632 2407.52 280.632 Q2405.33 280.632 2402.87 281.396 Q2400.44 282.16 2397.66 283.711 L2397.66 278.989 Q2400.49 277.854 2402.94 277.276 Q2405.4 276.697 2407.43 276.697 Q2412.8 276.697 2416 279.382 Q2419.19 282.067 2419.19 286.558 Q2419.19 288.688 2418.38 290.609 Q2417.59 292.507 2415.49 295.1 Q2414.91 295.771 2411.81 298.988 Q2408.71 302.183 2403.06 307.947 Z" fill="#000000" fill-rule="evenodd" fill-opacity="1" /></svg>
